<?xml version="1.0" encoding="utf-8"?>
<!-- Generator: Adobe Illustrator 16.0.0, SVG Export Plug-In . SVG Version: 6.00 Build 0)  -->
<!DOCTYPE svg PUBLIC "-//W3C//DTD SVG 1.1//EN" "http://www.w3.org/Graphics/SVG/1.1/DTD/svg11.dtd">
<svg version="1.1" id="Capa_1" xmlns="http://www.w3.org/2000/svg" xmlns:xlink="http://www.w3.org/1999/xlink" x="0px" y="0px"
	 width="172.7px" height="172.7px" viewBox="0 0 172.7 172.7" enable-background="new 0 0 172.7 172.7" xml:space="preserve">
<g>
	
		<path fill="#FFFFFF" stroke="#F99888" stroke-width="5" stroke-linecap="round" stroke-linejoin="round" stroke-miterlimit="10" d="
		M40.3,67.7c0,0,9.4-1.7,11.5,4.1c0.3,4.8,11.5,49.3,11.5,49.3h52.4"/>
	
		<polyline fill="#FFFFFF" stroke="#F99888" stroke-width="5.2443" stroke-linecap="round" stroke-linejoin="round" stroke-miterlimit="10" points="
		59.3,106 115.8,100.5 124.4,76.3 	"/>
	
		<ellipse fill="#FFFFFF" stroke="#F99888" stroke-width="5.2443" stroke-linecap="round" stroke-linejoin="round" stroke-miterlimit="10" cx="70.6" cy="139.4" rx="7.7" ry="7.3"/>
	
		<ellipse fill="#FFFFFF" stroke="#F99888" stroke-width="5.2443" stroke-linecap="round" stroke-linejoin="round" stroke-miterlimit="10" cx="105.3" cy="139.4" rx="7.7" ry="7.3"/>
</g>
<g>
	<g>
		<path fill="#F99888" d="M60.8,19.8l2.8,9.3c0.3,1,0.5,2,0.7,3c0.2,1,0.3,2.1,0.4,3.2l-3.6,1.1c-0.5-1-1-1.9-1.4-2.9
			c-0.4-0.9-0.8-1.9-1.1-2.9l-2.8-9.3L60.8,19.8z M61.6,42.6c-0.1-0.4-0.2-0.8-0.1-1.2s0.2-0.7,0.4-1.1c0.2-0.3,0.5-0.6,0.8-0.9
			c0.3-0.3,0.7-0.5,1.1-0.6c0.4-0.1,0.8-0.2,1.3-0.1c0.4,0,0.8,0.1,1.1,0.3c0.4,0.2,0.7,0.4,0.9,0.7c0.3,0.3,0.4,0.6,0.6,1
			c0.1,0.4,0.2,0.8,0.1,1.2c-0.1,0.4-0.2,0.8-0.4,1.1c-0.2,0.3-0.5,0.6-0.8,0.9c-0.3,0.3-0.7,0.4-1.1,0.6c-0.4,0.1-0.9,0.2-1.3,0.2
			c-0.4,0-0.8-0.1-1.1-0.3c-0.3-0.2-0.6-0.4-0.9-0.7C61.9,43.4,61.8,43,61.6,42.6z"/>
	</g>
</g>
<g>
	<g>
		<path fill="#F99888" d="M38.5,34.4l6.1,7.6c0.7,0.8,1.2,1.7,1.8,2.5c0.5,0.9,1.1,1.8,1.6,2.8l-3,2.4c-0.8-0.7-1.6-1.4-2.4-2.1
			c-0.7-0.7-1.4-1.5-2.1-2.3l-6.1-7.6L38.5,34.4z M47.8,55.3c-0.3-0.3-0.4-0.7-0.5-1c-0.1-0.4-0.1-0.8-0.1-1.1
			c0.1-0.4,0.2-0.7,0.4-1.1c0.2-0.4,0.5-0.7,0.8-1c0.3-0.3,0.7-0.5,1.1-0.6s0.8-0.2,1.2-0.1c0.4,0,0.8,0.1,1.1,0.3
			c0.3,0.2,0.6,0.4,0.9,0.7c0.3,0.3,0.4,0.7,0.5,1c0.1,0.4,0.1,0.8,0.1,1.1c-0.1,0.4-0.2,0.8-0.4,1.1c-0.2,0.4-0.5,0.7-0.8,1
			c-0.4,0.3-0.7,0.5-1.1,0.6c-0.4,0.1-0.8,0.2-1.2,0.1c-0.4,0-0.7-0.1-1.1-0.3C48.4,55.9,48.1,55.6,47.8,55.3z"/>
	</g>
</g>
<g>
	<g>
		<path fill="#F99888" d="M108.2,42.6c0.1-0.4,0.3-0.7,0.6-1c0.3-0.3,0.6-0.5,0.9-0.6c0.4-0.1,0.7-0.2,1.2-0.2
			c0.4,0,0.8,0.1,1.3,0.2c0.4,0.2,0.8,0.4,1.1,0.6c0.3,0.3,0.6,0.6,0.7,0.9c0.2,0.3,0.3,0.7,0.3,1.1s0,0.8-0.2,1.2
			c-0.1,0.4-0.4,0.7-0.6,1c-0.3,0.3-0.6,0.5-1,0.6c-0.4,0.1-0.7,0.2-1.2,0.2c-0.4,0-0.8-0.1-1.2-0.2c-0.4-0.2-0.8-0.4-1.1-0.6
			c-0.3-0.3-0.6-0.6-0.7-0.9c-0.2-0.3-0.3-0.7-0.3-1.1C108,43.4,108,43,108.2,42.6z M121.3,23.9l-3.4,9.1c-0.4,1-0.8,1.9-1.3,2.8
			c-0.5,0.9-1,1.8-1.6,2.8l-3.5-1.3c0.2-1.1,0.4-2.1,0.6-3.1c0.2-1,0.5-2,0.9-3l3.4-9.1L121.3,23.9z"/>
	</g>
</g>
<g>
	<g>
		<path fill="#F99888" d="M84.1,38.9c0-0.4,0.1-0.8,0.2-1.1c0.2-0.4,0.4-0.7,0.7-0.9c0.3-0.3,0.6-0.5,1-0.6c0.4-0.2,0.8-0.2,1.3-0.2
			c0.4,0,0.9,0.1,1.2,0.2c0.4,0.1,0.7,0.4,1,0.6c0.3,0.3,0.5,0.6,0.7,0.9c0.2,0.3,0.3,0.7,0.3,1.1s-0.1,0.8-0.2,1.2
			c-0.2,0.4-0.4,0.7-0.7,0.9c-0.3,0.3-0.6,0.5-1,0.6c-0.4,0.2-0.8,0.2-1.2,0.2c-0.5,0-0.9-0.1-1.3-0.2s-0.7-0.3-1-0.6
			c-0.3-0.3-0.5-0.6-0.7-0.9C84.2,39.7,84.1,39.3,84.1,38.9z M89.6,16.7l0.1,9.7c0,1,0,2.1-0.2,3.1c-0.1,1-0.3,2.1-0.5,3.1l-3.8,0.1
			c-0.2-1.1-0.4-2.1-0.6-3.1c-0.1-1-0.2-2.1-0.2-3.1l-0.1-9.7L89.6,16.7z"/>
	</g>
</g>
<g>
	<g>
		<path fill="#F99888" d="M126.4,57c0.3-0.3,0.6-0.5,1-0.6s0.7-0.2,1.1-0.2c0.4,0,0.8,0.1,1.1,0.3c0.4,0.2,0.7,0.4,1.1,0.7
			c0.3,0.3,0.6,0.7,0.7,1c0.2,0.4,0.3,0.8,0.3,1.2s0,0.8-0.2,1.1c-0.1,0.4-0.3,0.7-0.6,1s-0.6,0.5-1,0.6s-0.7,0.2-1.1,0.2
			c-0.4,0-0.8-0.1-1.1-0.3c-0.4-0.2-0.7-0.4-1-0.7c-0.3-0.3-0.6-0.7-0.7-1c-0.2-0.4-0.3-0.8-0.3-1.1c0-0.3,0-0.8,0.2-1.1
			C125.9,57.6,126.1,57.3,126.4,57z M146.1,45.5l-6.9,6.9c-0.7,0.7-1.5,1.4-2.3,2.1c-0.8,0.6-1.7,1.3-2.6,1.9l-2.7-2.7
			c0.6-0.9,1.2-1.8,1.8-2.6c0.6-0.8,1.3-1.6,2.1-2.3l6.9-6.9L146.1,45.5z"/>
	</g>
</g>
</svg>
